<?xml version="1.0" encoding="utf-8"?>
<svg viewBox="3.425 0 56.506 67.923" xmlns="http://www.w3.org/2000/svg">
  <path d="M 45.37 11.406 C 45.108 11.437 44.874 11.574 44.714 11.781 L 41.714 15.594 C 41.151 14.863 40.269 14.375 39.276 14.375 L 36.464 14.375 C 34.765 14.375 33.37 15.769 33.37 17.469 L 33.37 25.281 C 33.37 26.98 34.765 28.375 36.464 28.375 L 39.276 28.375 C 40.269 28.375 41.151 27.887 41.714 27.156 L 44.714 30.969 C 45.007 31.336 45.519 31.441 45.933 31.219 L 55.839 25.812 C 56.253 25.59 56.444 25.105 56.3 24.66 C 56.151 24.211 55.71 23.937 55.245 24 C 55.124 24.019 55.007 24.062 54.901 24.125 L 45.745 29.156 L 42.37 24.875 L 42.37 17.906 L 45.745 13.625 L 54.901 18.625 C 55.206 18.832 55.601 18.848 55.921 18.668 C 56.241 18.488 56.433 18.144 56.413 17.777 C 56.397 17.41 56.175 17.086 55.839 16.937 L 45.933 11.531 C 45.761 11.434 45.565 11.391 45.37 11.406 Z M 15.37 12.375 C 10.409 12.375 6.37 16.414 6.37 21.375 C 6.37 26.336 10.409 30.375 15.37 30.375 C 20.331 30.375 24.37 26.336 24.37 21.375 C 24.37 16.414 20.331 12.375 15.37 12.375 Z M 25.058 16.375 C 25.851 17.894 26.37 19.547 26.37 21.375 C 26.37 23.203 25.851 25.855 25.058 27.375 L 31.339 27.375 C 31.265 27.027 31.276 25.742 31.276 25.375 L 31.276 17.375 C 31.276 17.008 31.265 16.723 31.339 16.375 L 25.058 16.375 Z M 15.37 16.719 C 17.929 16.719 20.026 18.816 20.026 21.375 C 20.026 23.934 17.929 26.031 15.37 26.031 C 12.811 26.031 10.714 23.934 10.714 21.375 C 10.714 18.816 12.811 16.719 15.37 16.719 Z M 24.183 27.937 C 22.175 30.617 18.972 32.375 15.37 32.375 C 14.144 32.375 12.972 32.152 11.87 31.781 L 20.651 48.344 L 35.714 48.344 L 24.183 27.937 Z M 13.245 50.375 C 11.624 50.375 10.37 51.691 10.37 53.375 L 10.37 58.375 C 10.37 58.957 10.788 59.375 11.37 59.375 L 45.37 59.375 C 45.952 59.375 46.37 58.957 46.37 58.375 L 46.37 53.375 C 46.37 51.691 45.116 50.375 43.495 50.375 L 13.245 50.375 Z" style="fill: rgb(239, 134, 10);"/>
</svg>