<?xml version="1.0" encoding="utf-8"?>
<svg viewBox="0 0 196.30826 32.771839" xmlns="http://www.w3.org/2000/svg" xmlns:bx="https://boxy-svg.com">
  <g id="layer1" transform="matrix(1, 0, 0, 1, -9.17731761932373, -110.0988998413086)">
    <g id="g3">
      <text style="font-style: normal; font-variant: normal; font-weight: normal; font-stretch: normal; font-size: 25.4px; line-height: 0; font-family: Audiowide; fill: rgb(151, 151, 151); fill-opacity: 1; stroke: rgb(0, 0, 0); stroke-width: 0.465; stroke-dasharray: none; stroke-opacity: 1; white-space: pre;" x="44.895" y="128.713" id="text1-7"><tspan id="tspan1-5" style="font-style: normal; font-variant: normal; font-weight: normal; font-stretch: normal; font-size: 25.4px; line-height: 0; font-family: Audiowide; fill: rgb(151, 151, 151); fill-opacity: 1; stroke: rgb(0, 0, 0); stroke-width: 0.465; stroke-dasharray: none; stroke-opacity: 1; word-spacing: 0px;" x="44.895" y="128.713">SITExpress</tspan></text>
      <path d="M 35.93 111.143 C 35.773 111.162 35.631 111.247 35.535 111.375 L 33.729 113.735 C 33.39 113.283 32.858 112.981 32.261 112.981 L 30.568 112.981 C 29.544 112.981 28.704 113.844 28.704 114.895 L 28.704 119.73 C 28.704 120.783 29.544 121.644 30.568 121.644 L 32.261 121.644 C 32.858 121.644 33.39 121.343 33.729 120.891 L 35.535 123.251 C 35.711 123.477 36.019 123.543 36.269 123.405 L 42.233 120.059 C 42.482 119.921 42.598 119.621 42.51 119.345 C 42.422 119.068 42.156 118.899 41.876 118.937 C 41.802 118.95 41.732 118.977 41.668 119.014 L 36.156 122.129 L 34.124 119.479 L 34.124 115.166 L 36.156 112.516 L 41.668 115.611 C 41.852 115.738 42.09 115.748 42.282 115.637 C 42.475 115.526 42.591 115.313 42.579 115.086 C 42.569 114.859 42.436 114.658 42.233 114.567 L 36.269 111.22 C 36.165 111.16 36.048 111.134 35.93 111.143 Z M 17.867 111.742 C 14.88 111.742 12.449 114.242 12.449 117.313 C 12.449 120.383 14.88 122.883 17.867 122.883 C 20.854 122.883 23.286 120.383 23.286 117.313 C 23.286 114.242 20.854 111.742 17.867 111.742 Z M 23.7 114.218 C 24.178 115.159 24.491 116.181 24.491 117.313 C 24.491 118.444 24.178 120.086 23.7 121.026 L 27.482 121.026 C 27.437 120.811 27.444 120.016 27.444 119.788 L 27.444 114.837 C 27.444 114.61 27.437 114.433 27.482 114.218 L 23.7 114.218 Z M 17.867 114.431 C 19.408 114.431 20.672 115.729 20.672 117.313 C 20.672 118.896 19.408 120.195 17.867 120.195 C 16.327 120.195 15.064 118.896 15.064 117.313 C 15.064 115.729 16.327 114.431 17.867 114.431 Z M 23.173 121.375 C 21.964 123.033 20.036 124.121 17.867 124.121 C 17.129 124.121 16.423 123.983 15.76 123.753 L 21.048 134.004 L 30.116 134.004 L 23.173 121.375 Z M 16.588 135.261 C 15.612 135.261 14.857 136.076 14.857 137.118 L 14.857 140.212 C 14.857 140.572 15.109 140.831 15.459 140.831 L 35.93 140.831 C 36.28 140.831 36.532 140.572 36.532 140.212 L 36.532 137.118 C 36.532 136.076 35.777 135.261 34.8 135.261 L 16.588 135.261 Z" style="fill: rgb(239, 134, 10);"/>
      <text style="fill: rgb(151, 151, 151); font-family: Audiowide; font-size: 7.5px; text-transform: capitalize; white-space: pre;" x="44.992" y="140.516">SMART INVESTMENT TOOL EXPRESS</text>
    </g>
  </g>
</svg>